<?xml version="1.0" standalone="no"?>
<!DOCTYPE svg PUBLIC "-//W3C//DTD SVG 20010904//EN"
 "http://www.w3.org/TR/2001/REC-SVG-20010904/DTD/svg10.dtd">
<svg version="1.0" xmlns="http://www.w3.org/2000/svg"
 width="1271.000000pt" height="1280.000000pt" viewBox="0 0 1271.000000 1280.000000"
 preserveAspectRatio="xMidYMid meet">
<metadata>
Created by potrace 1.15, written by Peter Selinger 2001-2017
</metadata>
<g transform="translate(0.000000,1280.000000) scale(0.100000,-0.100000)"
fill="#ffffff" stroke="none">
<path d="M6805 10514 c-1156 -52 -2223 -351 -3155 -885 -496 -283 -876 -622
-1054 -938 -190 -336 -213 -663 -70 -1035 24 -64 44 -100 55 -103 10 -3 27
-29 39 -59 12 -29 28 -58 34 -64 10 -7 47 30 148 148 1034 1206 2173 1881
3445 2041 467 59 937 46 1271 -34 305 -73 561 -239 622 -402 75 -198 72 -469
-6 -710 -61 -187 -192 -413 -352 -603 -117 -140 -337 -349 -523 -498 l-164
-131 -235 6 c-746 19 -990 -141 -1205 -789 -49 -148 -53 -164 -38 -175 9 -7
25 -13 34 -13 10 0 29 -4 43 -10 25 -9 25 -10 11 -50 -8 -22 -12 -47 -9 -54
11 -29 184 -51 394 -50 243 1 371 21 602 96 l98 32 122 -28 c397 -91 779 -232
1013 -376 185 -113 348 -270 409 -393 81 -165 124 -350 133 -577 21 -525 -169
-972 -578 -1364 -553 -530 -1309 -785 -2157 -727 -388 27 -635 95 -809 224
-89 66 -112 105 -125 213 -10 77 -8 113 11 264 33 258 54 369 511 2660 451
2266 450 2259 450 2338 0 76 -27 185 -57 229 -14 21 -42 68 -60 105 -38 74
-74 110 -143 142 -63 30 -244 28 -388 -3 -171 -36 -714 -209 -740 -236 -4 -3
1 -18 11 -33 9 -15 33 -59 52 -98 90 -179 81 -264 -140 -1374 -824 -4139 -790
-3958 -789 -4225 1 -172 18 -255 78 -374 56 -111 162 -269 219 -325 173 -172
456 -281 852 -328 142 -17 723 -16 940 1 676 52 1254 173 1786 372 793 297
1473 757 1894 1279 446 554 614 1288 428 1868 -30 97 -141 321 -222 452 -278
448 -783 813 -1443 1045 l-107 37 162 114 c321 224 611 479 804 709 320 378
483 781 483 1188 0 228 -34 354 -153 572 -77 142 -134 223 -221 314 -312 326
-812 532 -1461 601 -102 11 -606 20 -750 14z"/>
</g>
</svg>
